EMG
version=1
nRows=34
nColumns=17
inDegrees=no
endheader
time	_right_gast_med	_right_glut_max	_left_gast_med	_left_glut_max	_right_glut_med	_right_bic_fem	_right_rect_fem	_right_vast_lat	_right_vast_med	_right_tens_fasc_lat	_left_glut_med	_left_bic_fem	_left_rect_fem	_left_vast_lat	_left_vast_med	_left_tens_fasc_lat
      0.00000000	      0.53334409	      0.17837146	     -0.00505082	      0.46414483	     -0.11719156	      0.04846675	     -0.01810499	     -0.11426841	      0.17861070	      0.04017003	      0.06400690	      0.12214300	      0.02922580	      0.14235678	     -0.01840891	     -0.03586184
      0.01000000	      0.94475150	      0.36833385	      0.00646199	      0.15889287	     -0.08516926	      0.04204543	     -0.02296203	     -0.05093822	      0.15579654	      0.06418640	      0.08981694	      0.08169369	      0.00245452	      0.12530938	      0.05148972	      0.01187078
      0.02000000	      1.22891796	      0.29038909	      0.01242750	     -0.17238042	      0.02086598	     -0.01464287	     -0.03392228	     -0.01236423	      0.12606312	      0.04623206	      0.09256028	      0.00804788	     -0.02003296	      0.00915258	      0.08798227	      0.06997275
      0.03000000	      1.31554449	     -0.15610084	     -0.00102338	     -0.29279900	      0.12462121	     -0.03445521	     -0.01675943	     -0.00899593	      0.10249812	      0.03660265	      0.06826638	     -0.03950346	     -0.01826582	     -0.11765072	      0.04297279	      0.05897640
      0.04000000	      1.26400161	     -0.51875937	     -0.02126676	     -0.24570264	      0.13169953	      0.00132873	      0.04172744	     -0.00905683	      0.09696394	      0.04619963	      0.04851864	     -0.03641716	     -0.00817273	     -0.14378028	      0.00196811	     -0.00741569
      0.05000000	      0.91325831	     -0.38433570	     -0.01827629	     -0.05642083	      0.08877460	      0.02253055	      0.08271904	     -0.00680136	      0.07136855	      0.03043276	      0.03465053	     -0.01986547	      0.00608977	     -0.09720319	      0.01339602	     -0.05284950
      0.06000000	      0.33058867	      0.02401102	     -0.01132441	      0.15707344	      0.05179355	      0.01900071	      0.08039095	     -0.00389238	     -0.07875631	      0.00400933	      0.02043175	     -0.01052636	      0.02360312	     -0.05005698	      0.01528920	     -0.04595090
      0.07000000	     -0.56665736	      0.10403726	     -0.00493566	      0.19185829	      0.02192224	     -0.00437885	      0.06702622	     -0.00318219	     -0.27255186	      0.00991055	      0.02511694	     -0.00392529	      0.03309964	     -0.03547820	     -0.04065245	     -0.01052596
      0.08000000	     -0.85951370	     -0.07848157	      0.00668517	      0.09541249	     -0.00320975	     -0.03515656	      0.06340048	     -0.00363968	     -0.30830884	      0.02746790	      0.04612878	      0.00390751	      0.02995169	     -0.04686171	     -0.11474839	      0.01797538
      0.09000000	      1.16620946	      0.07353870	     -0.00122640	     -0.00253907	     -0.02009757	     -0.04478867	      0.05882949	      0.01726389	     -0.23509255	      0.01359422	      0.05899413	      0.00158747	      0.02218013	     -0.05270312	     -0.13469256	      0.03521293
      0.10000000	      2.67321777	      0.35558581	     -0.00206467	     -0.01938206	     -0.02699279	     -0.01586501	      0.03524239	      0.08385898	     -0.11856788	     -0.01021458	      0.04746644	     -0.10311534	      0.01117728	     -0.02117489	     -0.09829029	      0.04996580
      0.11000000	      0.47052419	      0.33283812	      0.03154884	      0.02930710	     -0.03039257	      0.02561051	      0.01382156	      0.17552485	      0.02382169	     -0.01317406	      0.01548394	     -0.18584496	     -0.00404309	      0.03393618	     -0.04191231	      0.05740742
      0.12000000	     -2.08815551	      0.15048927	      0.03262001	      0.02499095	     -0.03957422	      0.03889575	      0.00893518	      0.20368199	      0.06008960	     -0.00455806	     -0.01657799	     -0.07754613	     -0.01118602	      0.07969762	      0.02129434	      0.05503679
      0.13000000	     -0.54458570	     -0.01007707	      0.00002348	     -0.06113682	     -0.04402915	      0.02430169	      0.01761776	      0.10574036	     -0.03936904	     -0.00678321	     -0.03592218	      0.04433078	      0.00108992	      0.08145981	      0.09439722	      0.04134093
      0.14000000	      2.10804415	     -0.09609375	      0.03068742	     -0.08405136	     -0.03631816	      0.01026795	      0.03300524	     -0.05641685	     -0.15218891	     -0.01045738	     -0.03165555	      0.07016487	      0.01124912	      0.03465254	      0.18458548	      0.02490303
      0.15000000	      2.00277686	     -0.05798011	      0.07241096	     -0.02008360	     -0.02656058	      0.00722417	      0.03537243	     -0.17743231	     -0.17772418	      0.00057673	      0.00308092	      0.07898567	      0.01319811	     -0.01114459	      0.21178259	      0.01116185
      0.16000000	      0.87324798	      0.06112318	     -0.00251542	      0.01552211	     -0.01741890	      0.01657851	      0.02844094	     -0.22577554	     -0.13989252	      0.01494994	      0.04956502	      0.06670960	      0.01618596	     -0.02939223	     -0.01619559	     -0.00366825
      0.17000000	     -0.18198785	      0.09126135	     -0.04975389	      0.01418715	     -0.00542289	      0.03331278	      0.03064671	     -0.21477334	     -0.09879229	      0.01572456	      0.07298703	      0.00343404	      0.02065977	     -0.03204990	     -0.48282364	     -0.03148589
      0.18000000	     -1.16679609	     -0.03722897	     -0.02781089	      0.02822440	      0.00673084	      0.04149017	      0.03110842	     -0.14967196	     -0.09569995	     -0.00076077	      0.05735945	     -0.00692993	      0.02649548	     -0.03446258	     -0.58676374	     -0.08556465
      0.19000000	     -1.32409000	     -0.21177734	     -0.01534133	      0.05232213	      0.01928616	      0.03870816	      0.01496882	     -0.05275222	     -0.14712274	     -0.01309803	      0.00958154	      0.01767853	      0.01462998	     -0.01983298	     -0.01190954	     -0.10521173
      0.20000000	     -1.23703527	     -0.25759694	      0.05802433	      0.03828172	      0.02713438	      0.03182373	     -0.00273413	      0.02757585	     -0.17033423	     -0.01599221	     -0.03203344	      0.03275884	     -0.02844428	      0.01693675	      0.55429202	     -0.03558228
      0.21000000	     -0.96867973	     -0.16161135	      0.06826246	     -0.03043019	      0.02413149	      0.02571666	     -0.01509495	      0.05680760	     -0.11964203	     -0.03544136	     -0.02670693	      0.05259136	     -0.05288156	      0.06226154	      0.54479992	      0.02563732
      0.22000000	     -0.45122129	     -0.03138829	     -0.02299574	     -0.03108581	      0.00242240	      0.01947816	     -0.02219972	      0.04842393	     -0.05223336	     -0.06559005	     -0.03049412	      0.03130927	     -0.00684397	      0.08268661	      0.25174952	      0.00808040
      0.23000000	     -0.09991794	      0.04315981	     -0.02866399	      0.03911671	     -0.04107648	      0.01211618	     -0.03448116	      0.03908827	      0.00764136	     -0.01792499	     -0.07796008	     -0.01815686	      0.04163072	      0.07195920	      0.05735165	     -0.02984130
      0.24000000	      0.01907340	      0.02170559	      0.02229888	      0.01838976	     -0.07622454	      0.01355408	     -0.06122757	      0.04937815	      0.05386797	      0.08147143	     -0.08833085	     -0.05601550	      0.02597294	      0.05177269	     -0.12495759	     -0.01501236
      0.25000000	      0.04740493	     -0.04072141	      0.04569567	     -0.02286877	     -0.06555945	      0.00716189	     -0.04999409	      0.05989837	      0.07301090	      0.10133673	     -0.05136656	     -0.03084033	      0.00041382	      0.00747759	     -0.34867099	      0.08703701
      0.26000000	      0.05928792	     -0.01134087	      0.08354690	     -0.03957190	     -0.02742093	     -0.01220336	     -0.00228017	      0.04473872	      0.06528974	      0.03210812	     -0.01923456	      0.01377985	      0.03780608	      0.05051111	     -0.28671449	      0.13528471
      0.27000000	      0.05323797	     -0.02433029	      0.03911655	     -0.05700166	      0.00429967	     -0.01531898	      0.02685899	      0.02640718	      0.05007903	     -0.04159655	     -0.00960715	      0.01681336	      0.08544635	      0.06033739	      0.19727343	      0.07413790
      0.28000000	     -0.03911627	     -0.35086927	     -0.05285178	     -0.01172123	      0.05951986	     -0.00344741	      0.02489878	      0.02432707	      0.04011555	     -0.02948110	     -0.06242361	      0.01735413	      0.07902340	     -0.01737792	      0.36114886	      0.07061857
      0.29000000	      0.00760472	     -0.32150963	     -0.05019304	      0.06849495	      0.11790103	      0.00420247	      0.02213070	      0.01745851	      0.03517661	      0.01794152	     -0.04847724	      0.01527050	     -0.00017183	      0.04305958	      0.11165898	      0.06170735
      0.30000000	      0.94487196	      0.32952771	     -0.00190264	      0.08119360	      0.11315658	      0.00140930	      0.02903763	      0.01468132	      0.03104027	      0.02890769	      0.11179004	      0.02026059	     -0.03079871	      0.09469415	     -0.01421407	     -0.06457303
      0.31000000	      1.95931292	      0.35598674	      0.06508867	      0.04705143	      0.04783122	      0.00466557	      0.03171278	      0.04474080	      0.02273854	      0.02516863	      0.21936579	      0.03600696	      0.01017521	      0.03793192	     -0.02627821	     -0.13114974
      0.32000000	      0.68706048	      0.04687152	      0.00883693	      0.02483407	     -0.01643199	      0.03290923	      0.01921261	      0.07458385	     -0.00622532	      0.01994764	      0.19578457	      0.03223878	     -0.02782385	     -0.01092426	     -0.00772401	      0.01132673
      0.33000000	     -1.44005656	      0.23475547	     -0.03838706	     -0.00520844	      0.00008705	      0.07693291	      0.00947179	      0.06650116	     -0.04569659	      0.00934244	      0.07338564	      0.02077803	     -0.06574273	     -0.03944625	      0.04620197	      0.13031293
